<svg xmlns="http://www.w3.org/2000/svg" xmlns:xlink="http://www.w3.org/1999/xlink" width="2000" zoomAndPan="magnify" viewBox="0 0 1500 1499.999933" height="2000" preserveAspectRatio="xMidYMid meet" version="1.0"><defs><clipPath id="7db48f88ae"><path d="M 270 294 L 1196.902344 294 L 1196.902344 1208 L 270 1208 Z M 270 294 " clip-rule="nonzero"/></clipPath></defs><g clip-path="url(#7db48f88ae)"><path fill="#000000" d="M 1137.15625 1118.238281 C 1137.15625 1142.136719 1121.226562 1148.109375 1107.285156 1148.109375 L 390.371094 1148.109375 C 366.472656 1148.109375 360.5 1131.183594 360.5 1118.238281 L 360.5 849.40625 L 1137.15625 849.40625 Z M 1085.382812 700.054688 L 1040.574219 819.535156 L 921.085938 819.535156 L 965.894531 700.054688 Z M 860.347656 700.054688 L 815.542969 819.535156 L 696.054688 819.535156 L 740.863281 700.054688 Z M 636.3125 700.054688 L 591.503906 819.535156 L 472.019531 819.535156 L 516.828125 700.054688 Z M 512.84375 645.292969 L 431.195312 546.722656 L 544.707031 507.890625 L 626.355469 606.460938 Z M 643.28125 473.042969 L 756.792969 434.210938 L 838.441406 532.78125 L 723.9375 571.613281 Z M 855.371094 400.355469 L 968.882812 361.527344 L 1050.53125 460.097656 L 937.019531 498.929688 Z M 409.289062 643.300781 C 432.191406 643.300781 451.109375 662.21875 451.109375 685.121094 C 451.109375 708.019531 432.191406 726.9375 409.289062 726.9375 C 386.386719 726.9375 367.46875 708.019531 367.46875 685.121094 C 367.46875 662.21875 385.390625 643.300781 409.289062 643.300781 M 1196.902344 1118.238281 L 1196.902344 714.992188 C 1196.902344 697.070312 1184.953125 670.183594 1152.09375 670.183594 L 529.769531 670.183594 L 1122.222656 466.070312 C 1153.089844 455.121094 1156.078125 426.246094 1150.101562 409.320312 L 1121.226562 324.6875 C 1110.273438 293.820312 1081.398438 290.832031 1064.472656 296.808594 L 300.753906 559.664062 C 269.886719 570.617188 266.902344 599.492188 272.875 616.417969 L 302.746094 701.050781 C 302.746094 701.050781 302.746094 701.050781 302.746094 702.046875 C 301.75 706.03125 299.761719 710.011719 299.761719 714.992188 L 299.761719 1118.238281 C 299.761719 1154.082031 323.65625 1207.851562 389.375 1207.851562 L 1106.289062 1207.851562 C 1143.132812 1208.847656 1196.902344 1184.949219 1196.902344 1118.238281 " fill-opacity="1" fill-rule="nonzero"/><path fill="#000000" d="M 1137.15625 1118.238281 C 1137.15625 1142.136719 1121.226562 1148.109375 1107.285156 1148.109375 L 390.371094 1148.109375 C 366.472656 1148.109375 360.5 1131.183594 360.5 1118.238281 L 360.5 849.40625 L 1137.15625 849.40625 Z M 1085.382812 700.054688 L 1040.574219 819.535156 L 921.085938 819.535156 L 965.894531 700.054688 Z M 860.347656 700.054688 L 815.542969 819.535156 L 696.054688 819.535156 L 740.863281 700.054688 Z M 636.3125 700.054688 L 591.503906 819.535156 L 472.019531 819.535156 L 516.828125 700.054688 Z M 512.84375 645.292969 L 431.195312 546.722656 L 544.707031 507.890625 L 626.355469 606.460938 Z M 643.28125 473.042969 L 756.792969 434.210938 L 838.441406 532.78125 L 723.9375 571.613281 Z M 855.371094 400.355469 L 968.882812 361.527344 L 1050.53125 460.097656 L 937.019531 498.929688 Z M 409.289062 643.300781 C 432.191406 643.300781 451.109375 662.21875 451.109375 685.121094 C 451.109375 708.019531 432.191406 726.9375 409.289062 726.9375 C 386.386719 726.9375 367.46875 708.019531 367.46875 685.121094 C 367.46875 662.21875 385.390625 643.300781 409.289062 643.300781 M 1196.902344 1118.238281 L 1196.902344 714.992188 C 1196.902344 697.070312 1184.953125 670.183594 1152.09375 670.183594 L 529.769531 670.183594 L 1122.222656 466.070312 C 1153.089844 455.121094 1156.078125 426.246094 1150.101562 409.320312 L 1121.226562 324.6875 C 1110.273438 293.820312 1081.398438 290.832031 1064.472656 296.808594 L 300.753906 559.664062 C 269.886719 570.617188 266.902344 599.492188 272.875 616.417969 L 302.746094 701.050781 C 302.746094 701.050781 302.746094 701.050781 302.746094 702.046875 C 301.75 706.03125 299.761719 710.011719 299.761719 714.992188 L 299.761719 1118.238281 C 299.761719 1154.082031 323.65625 1207.851562 389.375 1207.851562 L 1106.289062 1207.851562 C 1143.132812 1208.847656 1196.902344 1184.949219 1196.902344 1118.238281 " fill-opacity="1" fill-rule="nonzero"/></g></svg>